<?xml version="1.0" encoding="UTF-8"?><svg xmlns="http://www.w3.org/2000/svg" viewBox="0 0 513 513"><defs><style>.cls-1{fill:#a515e8;}.cls-2{fill:#61ed3a;}.cls-3{fill:#1a1a1a;stroke:#1a1a1a;stroke-miterlimit:10;}.cls-4{fill:#eaeaea;font-family:Arial-Black, 'Arial Black';font-size:70px;}</style></defs><g id="Background_Tile"><rect class="cls-3" x=".5" y=".5" width="512" height="512" rx="43.88" ry="43.88"/></g><g id="Picture"><rect class="cls-2" x="40.33" y="30.95" width="442.15" height="298.35"/><path class="cls-1" d="M331.47,166.87c6.35,11.9,9.95,25.48,9.95,39.91,0,46.9-38.02,84.92-84.92,84.92s-84.92-38.02-84.92-84.92c0-12.94,2.89-25.2,8.07-36.17-11.31-19.41-31.28-64.63,2.84-98.75,0,0,.98,56.62,13.97,74.86,15.37-15.36,36.6-24.86,60.04-24.86,21.94,0,41.94,8.32,57.01,21.98,14.99-14.74,16.08-77.35,16.08-77.35,35.11,35.11,12.94,81.98,1.88,100.38Z"/></g><g id="Text"><text class="cls-4" transform="translate(18.36 441.34)"><tspan x="0" y="0">ANTICHRIST</tspan></text></g></svg>