<?xml version="1.0" encoding="UTF-8"?><svg xmlns="http://www.w3.org/2000/svg" viewBox="0 0 513 513"><defs><style>.cls-1{fill:#eaeaea;font-family:Arial-Black, 'Arial Black';font-size:90px;}.cls-2{fill:none;stroke:#2d2621;stroke-width:3px;}.cls-2,.cls-3{stroke-miterlimit:10;}.cls-4{fill:#cc254d;}.cls-5{fill:#2d2621;}.cls-3{fill:#1a1a1a;stroke:#1a1a1a;}.cls-6{letter-spacing:-.03em;}</style></defs><g id="Background_Tile"><rect class="cls-3" x=".5" y=".5" width="512" height="512" rx="43.88" ry="43.88"/></g><g id="Picture"><rect class="cls-4" x="40.33" y="30.95" width="442.15" height="298.35"/></g><g id="Layer_4"><path class="cls-5" d="M352.73,256.5c-171.9,58.6-211.57-151.99-211.57-151.99,171.9-58.61,211.57,151.99,211.57,151.99Z"/><polyline class="cls-2" points="246.94 257.39 215.54 283.02 237.03 317.73"/><polyline class="cls-2" points="327.35 202.66 361.29 180.5 387.86 211.5"/><polyline class="cls-2" points="191.26 201.4 159.85 227.03 181.34 261.74"/><polyline class="cls-2" points="156.86 149.96 125.46 175.59 146.95 210.3"/><polyline class="cls-2" points="286.18 149.78 320.13 127.62 346.69 158.62"/><polyline class="cls-2" points="231.15 106.74 265.1 84.59 291.66 115.59"/><ellipse class="cls-5" cx="135.38" cy="99.54" rx="51.24" ry="28.09"/><polyline class="cls-2" points="146.95 84.59 175.56 49.96 141.16 30.95"/><polyline class="cls-2" points="106.77 98.27 135.38 63.64 100.98 44.63"/></g><g id="Text"><text class="cls-1" transform="translate(120.1 441.34)"><tspan class="cls-6" x="0" y="0">B</tspan><tspan x="67.68" y="0">UGS</tspan></text></g></svg>