<?xml version="1.0" encoding="UTF-8"?><svg xmlns="http://www.w3.org/2000/svg" viewBox="0 0 513 513"><defs><style>.cls-1{letter-spacing:-.04em;}.cls-2{fill:#f29f1c;}.cls-3{fill:#ef4bb9;}.cls-4{fill:#f22a2a;}.cls-5{fill:#1d1def;}.cls-6{fill:#24dd1f;}.cls-7{fill:#eaeaea;font-family:Arial-Black, 'Arial Black';font-size:60px;}.cls-8{fill:#1a1a1a;stroke:#1a1a1a;stroke-miterlimit:10;}</style></defs><g id="Background_Tile"><rect class="cls-8" x=".5" y=".5" width="512" height="512" rx="43.88" ry="43.88"/></g><g id="Picture"><rect class="cls-4" x="40.33" y="30.95" width="442.15" height="298.35"/></g><g id="Layer_4"><path class="cls-2" d="M88.27,243.35s157.02,97.52,336.36,0"/><path class="cls-2" d="M424.68,187.98c-112.08,25.34-224.2,25.35-336.36,0v55.37s336.36,0,336.36,0v-55.37Z"/><polygon class="cls-2" points="151.13 203.27 88.32 203.27 119.73 100.79 151.13 203.27"/><polygon class="cls-2" points="219.67 215.67 156.86 215.67 188.27 113.19 219.67 215.67"/><polygon class="cls-2" points="287.91 224.76 225.1 224.76 256.5 122.28 287.91 224.76"/><polygon class="cls-2" points="356.29 215.67 293.48 215.67 324.89 113.19 356.29 215.67"/><polygon class="cls-2" points="424.68 204.92 361.87 204.92 393.28 102.44 424.68 204.92"/><circle class="cls-5" cx="119.72" cy="88.93" r="13.51"/><circle class="cls-5" cx="393.28" cy="88.93" r="13.51"/><circle class="cls-6" cx="188.27" cy="100.79" r="13.51"/><circle class="cls-6" cx="324.89" cy="100.79" r="13.51"/><circle class="cls-3" cx="256.45" cy="108.77" r="13.51"/></g><g id="Text"><text class="cls-7" transform="translate(17.8 442.06)"><tspan x="0" y="0">G</tspan><tspan class="cls-1" x="49.98" y="0">O</tspan><tspan x="97.38" y="0">VERNMENT</tspan></text></g></svg>