<?xml version="1.0" encoding="UTF-8"?><svg xmlns="http://www.w3.org/2000/svg" viewBox="0 0 513 513"><defs><style>.cls-1{font-family:Arial-Black, 'Arial Black';font-size:90px;}.cls-1,.cls-2{fill:#eaeaea;}.cls-3{fill:#aeaeae;stroke-width:5px;}.cls-3,.cls-2,.cls-4{stroke:#eaeaea;}.cls-3,.cls-2,.cls-4,.cls-5{stroke-miterlimit:10;}.cls-6{letter-spacing:-.07em;}.cls-7{letter-spacing:-.03em;}.cls-8{fill:#e5e5e5;}.cls-4{fill:#93becd;}.cls-5{fill:#1a1a1a;stroke:#1a1a1a;}.cls-9{letter-spacing:-.08em;}</style></defs><g id="Background_Tile"><rect class="cls-5" x=".5" y=".5" width="512" height="512" rx="43.88" ry="43.88"/></g><g id="Picture"><rect class="cls-2" x="40.33" y="30.95" width="442.15" height="298.35"/></g><g id="Oatly"><polygon class="cls-4" points="261.41 85.5 132.71 308.4 390.1 308.4 261.41 85.5"/><line class="cls-3" x1="261.41" y1="308.4" x2="261.41" y2="221.3"/><path class="cls-8" d="M278.22,279.71h14.88c-5.82-11.05-23.25-11.81-30.06-11.66-.64,0-1.19,.03-1.63,.06,.13,.31,.29,.67,.46,1.06,2.56,5.73,9.6,19.19,20.39,21.79l-4.03-11.24Z"/><path class="cls-8" d="M244.6,265.07h-14.88c5.82-11.05,23.25-11.81,30.06-11.66,.64,0,1.19,.03,1.63,.06-.13,.31-.29,.67-.46,1.06-2.56,5.73-9.6,19.19-20.39,21.79l4.03-11.24Z"/><path class="cls-8" d="M276.84,256.45h14.88c-5.82-11.05-23.25-11.81-30.06-11.66-.64,0-1.19,.03-1.63,.06,.13,.31,.29,.67,.46,1.06,2.56,5.73,9.6,19.19,20.39,21.79l-4.03-11.24Z"/><path class="cls-8" d="M244.6,244.99h-14.88c5.82-11.05,23.25-11.81,30.06-11.66,.64,0,1.19,.03,1.63,.06-.13,.31-.29,.67-.46,1.06-2.56,5.73-9.6,19.19-20.39,21.79l4.03-11.24Z"/><path class="cls-8" d="M276.84,233.53h14.88c-5.82-11.05-23.25-11.81-30.06-11.66-.64,0-1.19,.03-1.63,.06,.13,.31,.29,.67,.46,1.06,2.56,5.73,9.6,19.19,20.39,21.79l-4.03-11.24Z"/></g><g id="Text"><text class="cls-1" transform="translate(84.53 441.34)"><tspan class="cls-7" x="0" y="0">O</tspan><tspan class="cls-6" x="71.89" y="0">A</tspan><tspan x="135.7" y="0">T</tspan><tspan class="cls-9" x="200.7" y="0">L</tspan><tspan x="253.78" y="0">Y!</tspan></text></g></svg>